<?xml version="1.0" encoding="UTF-8" standalone="no"?>
<!-- App icon foreground: a white car, kept inside the central safe zone used by Android adaptive icons. -->
<svg width="456" height="456" viewBox="0 0 456 456" version="1.1" xmlns="http://www.w3.org/2000/svg">
    <path d="M150 204 L182 152 Q188 142 200 142 L260 142 Q272 142 279 152 L314 204 Z" fill="#FFFFFF" />
    <rect x="108" y="198" width="240" height="76" rx="24" fill="#FFFFFF" />
    <path d="M172 198 L194 162 L223 162 L223 198 Z" fill="#1E56A0" />
    <path d="M235 198 L235 162 L264 162 L290 198 Z" fill="#1E56A0" />
    <rect x="322" y="216" width="18" height="12" rx="4" fill="#FFD54F" />
    <circle cx="170" cy="276" r="36" fill="#1E56A0" />
    <circle cx="170" cy="276" r="27" fill="#FFFFFF" />
    <circle cx="170" cy="276" r="10" fill="#1E56A0" />
    <circle cx="288" cy="276" r="36" fill="#1E56A0" />
    <circle cx="288" cy="276" r="27" fill="#FFFFFF" />
    <circle cx="288" cy="276" r="10" fill="#1E56A0" />
</svg>
